<svg width="1200" height="630" viewBox="0 0 1200 630" fill="none" xmlns="http://www.w3.org/2000/svg">
  <rect width="1200" height="630" rx="36" fill="#FFF8EE"/>
  <circle cx="173" cy="121" r="132" fill="#FED7AA"/>
  <circle cx="1043" cy="120" r="132" fill="#BAE6FD"/>
  <circle cx="1048" cy="505" r="152" fill="#A7F3D0"/>
  <rect x="96" y="88" width="1008" height="454" rx="40" fill="white" fill-opacity="0.88"/>
  <rect x="150" y="154" width="214" height="214" rx="36" fill="#F97316"/>
  <path d="M214 224C214 198.49 234.49 178 260 178C285.51 178 306 198.49 306 224V298H214V224Z" fill="white" fill-opacity="0.88"/>
  <rect x="246" y="224" width="28" height="122" rx="14" fill="#FFF8EE"/>
  <rect x="470" y="162" width="488" height="24" rx="12" fill="#FDBA74"/>
  <rect x="470" y="214" width="362" height="102" rx="24" fill="#0EA5E9"/>
  <rect x="470" y="342" width="218" height="70" rx="20" fill="#E0F2FE"/>
  <rect x="712" y="342" width="246" height="70" rx="20" fill="#FEF3C7"/>
  <rect x="470" y="432" width="488" height="30" rx="15" fill="#F1F5F9"/>
  <rect x="470" y="478" width="342" height="18" rx="9" fill="#CBD5E1"/>
  <text x="940" y="230" fill="white" font-family="Tajawal, Arial, sans-serif" font-size="116" font-weight="800" text-anchor="end">الميدان</text>
  <text x="940" y="288" fill="#D1FAE5" font-family="Tajawal, Arial, sans-serif" font-size="36" font-weight="700" text-anchor="end">لعبة غرف مباشرة للأصدقاء</text>
  <text x="940" y="386" fill="#0F172A" font-family="Tajawal, Arial, sans-serif" font-size="34" font-weight="700" text-anchor="end">أسئلة وتصنيفات ولوحة نقاط</text>
  <text x="940" y="470" fill="#334155" font-family="Tajawal, Arial, sans-serif" font-size="30" font-weight="500" text-anchor="end">2 إلى 4 لاعبين • دردشة فورية • تحديات سريعة</text>
</svg>
