<svg xmlns="http://www.w3.org/2000/svg" width="1200" height="630" viewBox="0 0 1200 630" fill="none">
  <defs>
    <linearGradient id="bg" x1="80" y1="40" x2="1120" y2="590" gradientUnits="userSpaceOnUse">
      <stop stop-color="#0B1830" />
      <stop offset="0.55" stop-color="#08111F" />
      <stop offset="1" stop-color="#120A1F" />
    </linearGradient>
    <radialGradient id="glowA" cx="0" cy="0" r="1" gradientUnits="userSpaceOnUse" gradientTransform="translate(170 130) rotate(34) scale(260 190)">
      <stop stop-color="#2CCBFF" stop-opacity="0.44" />
      <stop offset="1" stop-color="#2CCBFF" stop-opacity="0" />
    </radialGradient>
    <radialGradient id="glowB" cx="0" cy="0" r="1" gradientUnits="userSpaceOnUse" gradientTransform="translate(1020 540) rotate(-8) scale(340 240)">
      <stop stop-color="#FFB84D" stop-opacity="0.34" />
      <stop offset="1" stop-color="#FFB84D" stop-opacity="0" />
    </radialGradient>
    <linearGradient id="card" x1="260" y1="190" x2="980" y2="540" gradientUnits="userSpaceOnUse">
      <stop stop-color="#16233D" />
      <stop offset="1" stop-color="#0D172B" />
    </linearGradient>
    <linearGradient id="pillBlue" x1="0" y1="0" x2="220" y2="44" gradientUnits="userSpaceOnUse">
      <stop stop-color="#00D6FF" />
      <stop offset="1" stop-color="#4DA9FF" />
    </linearGradient>
    <linearGradient id="pillGold" x1="0" y1="0" x2="220" y2="44" gradientUnits="userSpaceOnUse">
      <stop stop-color="#FFD166" />
      <stop offset="1" stop-color="#FF9B52" />
    </linearGradient>
  </defs>

  <rect width="1200" height="630" rx="34" fill="url(#bg)" />
  <rect width="1200" height="630" rx="34" fill="url(#glowA)" />
  <rect width="1200" height="630" rx="34" fill="url(#glowB)" />

  <circle cx="1005" cy="118" r="74" fill="#12C8FF" fill-opacity="0.1" />
  <circle cx="160" cy="520" r="108" fill="#FF5D88" fill-opacity="0.08" />

  <rect x="70" y="70" width="210" height="46" rx="23" fill="#FFFFFF" fill-opacity="0.08" />
  <text x="175" y="100" text-anchor="middle" fill="#FFD166" font-family="Tahoma, Arial, sans-serif" font-size="22" font-weight="700">غرفة مباشرة</text>

  <text x="1040" y="170" text-anchor="end" fill="#F8FBFF" font-family="Tahoma, Arial, sans-serif" font-size="70" font-weight="700">ساحة التحدي</text>
  <text x="1040" y="220" text-anchor="end" fill="#B9C4E6" font-family="Tahoma, Arial, sans-serif" font-size="28" font-weight="500">أسئلة من ملف إكسل • غرف مباشرة • دردشة فورية</text>

  <rect x="780" y="262" width="260" height="52" rx="26" fill="#FFFFFF" fill-opacity="0.06" />
  <text x="910" y="296" text-anchor="middle" fill="#F8FBFF" font-family="Tahoma, Arial, sans-serif" font-size="24" font-weight="700">رابط غرفة قابل للمشاركة</text>

  <g filter="drop-shadow(0 26px 52px rgba(0,0,0,0.28))">
    <rect x="80" y="190" width="1040" height="360" rx="34" fill="url(#card)" stroke="#FFFFFF" stroke-opacity="0.08" />
  </g>

  <rect x="118" y="228" width="250" height="260" rx="28" fill="#0E1C31" stroke="#FFFFFF" stroke-opacity="0.06" />
  <rect x="398" y="228" width="324" height="260" rx="28" fill="#0E1C31" stroke="#FFFFFF" stroke-opacity="0.06" />
  <rect x="752" y="228" width="330" height="260" rx="28" fill="#0E1C31" stroke="#FFFFFF" stroke-opacity="0.06" />

  <text x="338" y="268" text-anchor="end" fill="#F8FBFF" font-family="Tahoma, Arial, sans-serif" font-size="30" font-weight="700">الغرفة</text>
  <text x="338" y="312" text-anchor="end" fill="#B9C4E6" font-family="Tahoma, Arial, sans-serif" font-size="22">FOSTMM</text>
  <text x="338" y="356" text-anchor="end" fill="#B9C4E6" font-family="Tahoma, Arial, sans-serif" font-size="22">٤ لاعبين + متفرجون</text>
  <rect x="122" y="392" width="230" height="54" rx="27" fill="url(#pillBlue)" />
  <text x="237" y="427" text-anchor="middle" fill="#09131E" font-family="Tahoma, Arial, sans-serif" font-size="24" font-weight="700">نسخ رابط الغرفة</text>

  <text x="692" y="268" text-anchor="end" fill="#F8FBFF" font-family="Tahoma, Arial, sans-serif" font-size="30" font-weight="700">لوحة اللعب</text>
  <g transform="translate(430 304)">
    <rect width="76" height="52" rx="18" fill="#DCE6F4" />
    <rect x="90" width="76" height="52" rx="18" fill="#DCE6F4" />
    <rect x="180" width="76" height="52" rx="18" fill="#DCE6F4" />
    <rect x="0" y="66" width="76" height="52" rx="18" fill="#4CC9F0" />
    <rect x="90" y="66" width="76" height="52" rx="18" fill="#FFD166" />
    <rect x="180" y="66" width="76" height="52" rx="18" fill="#DCE6F4" />
    <rect x="0" y="132" width="76" height="52" rx="18" fill="#DCE6F4" />
    <rect x="90" y="132" width="76" height="52" rx="18" fill="#DCE6F4" />
    <rect x="180" y="132" width="76" height="52" rx="18" fill="#DCE6F4" />
  </g>

  <text x="1050" y="268" text-anchor="end" fill="#F8FBFF" font-family="Tahoma, Arial, sans-serif" font-size="30" font-weight="700">الدردشة</text>
  <rect x="790" y="302" width="250" height="54" rx="18" fill="#FFFFFF" fill-opacity="0.06" />
  <text x="1020" y="336" text-anchor="end" fill="#FFD166" font-family="Tahoma, Arial, sans-serif" font-size="22" font-weight="700">القوانين</text>
  <rect x="790" y="372" width="250" height="80" rx="22" fill="#FFFFFF" fill-opacity="0.05" />
  <text x="1016" y="406" text-anchor="end" fill="#F8FBFF" font-family="Tahoma, Arial, sans-serif" font-size="21" font-weight="700">النظام</text>
  <text x="1016" y="438" text-anchor="end" fill="#B9C4E6" font-family="Tahoma, Arial, sans-serif" font-size="18">كل واحد له دور يختار سؤال</text>

  <rect x="124" y="510" width="184" height="26" rx="13" fill="#FF6B6B" fill-opacity="0.18" />
  <rect x="324" y="510" width="184" height="26" rx="13" fill="#4CC9F0" fill-opacity="0.18" />
  <rect x="524" y="510" width="184" height="26" rx="13" fill="#FFD166" fill-opacity="0.18" />
  <rect x="724" y="510" width="184" height="26" rx="13" fill="#22C55E" fill-opacity="0.18" />

  <text x="1112" y="592" text-anchor="end" fill="#F8FBFF" font-family="Tahoma, Arial, sans-serif" font-size="26" font-weight="700">https://sli0tin.github.io/Game/</text>
</svg>
