<svg width="1200" height="630" viewBox="0 0 1200 630" fill="none" xmlns="http://www.w3.org/2000/svg">
  <defs>
    <linearGradient id="bg" x1="120" y1="40" x2="1090" y2="630" gradientUnits="userSpaceOnUse">
      <stop stop-color="#0F172A"/>
      <stop offset="0.52" stop-color="#172554"/>
      <stop offset="1" stop-color="#1D4ED8"/>
    </linearGradient>
    <radialGradient id="glowA" cx="0" cy="0" r="1" gradientUnits="userSpaceOnUse" gradientTransform="translate(985 120) rotate(127.176) scale(285.104 374.663)">
      <stop stop-color="#38BDF8" stop-opacity="0.75"/>
      <stop offset="1" stop-color="#38BDF8" stop-opacity="0"/>
    </radialGradient>
    <radialGradient id="glowB" cx="0" cy="0" r="1" gradientUnits="userSpaceOnUse" gradientTransform="translate(255 545) rotate(-31.136) scale(342.906 261.245)">
      <stop stop-color="#F59E0B" stop-opacity="0.9"/>
      <stop offset="1" stop-color="#F59E0B" stop-opacity="0"/>
    </radialGradient>
    <linearGradient id="panel" x1="180" y1="124" x2="958" y2="548" gradientUnits="userSpaceOnUse">
      <stop stop-color="white" stop-opacity="0.18"/>
      <stop offset="1" stop-color="white" stop-opacity="0.08"/>
    </linearGradient>
    <linearGradient id="gold" x1="0" y1="0" x2="1" y2="1">
      <stop stop-color="#FDE68A"/>
      <stop offset="1" stop-color="#F59E0B"/>
    </linearGradient>
    <filter id="blur" x="0" y="0" width="1200" height="630" filterUnits="userSpaceOnUse" color-interpolation-filters="sRGB">
      <feGaussianBlur stdDeviation="40"/>
    </filter>
  </defs>

  <rect width="1200" height="630" rx="36" fill="url(#bg)"/>
  <g filter="url(#blur)">
    <circle cx="962" cy="134" r="170" fill="url(#glowA)"/>
    <circle cx="250" cy="560" r="188" fill="url(#glowB)"/>
  </g>

  <path d="M0 466C188 364 324 334 496 378C653 417 760 524 1200 369V630H0V466Z" fill="white" fill-opacity="0.05"/>

  <g opacity="0.14" stroke="white">
    <path d="M83 88H366"/>
    <path d="M83 132H316"/>
    <path d="M835 512H1116"/>
    <path d="M885 556H1116"/>
    <circle cx="1042" cy="459" r="43"/>
    <circle cx="1124" cy="168" r="19"/>
    <circle cx="104" cy="520" r="11"/>
  </g>

  <rect x="92" y="84" width="1016" height="462" rx="34" fill="url(#panel)" stroke="white" stroke-opacity="0.18" stroke-width="2"/>
  <rect x="126" y="118" width="948" height="394" rx="28" fill="#0B1120" fill-opacity="0.18" stroke="white" stroke-opacity="0.08"/>

  <g opacity="0.08">
    <path d="M146 150H1054" stroke="white"/>
    <path d="M146 186H1054" stroke="white"/>
    <path d="M146 222H1054" stroke="white"/>
    <path d="M146 258H1054" stroke="white"/>
    <path d="M146 294H1054" stroke="white"/>
    <path d="M146 330H1054" stroke="white"/>
    <path d="M146 366H1054" stroke="white"/>
    <path d="M146 402H1054" stroke="white"/>
    <path d="M146 438H1054" stroke="white"/>
  </g>

  <g transform="translate(148 154)">
    <rect x="0" y="0" width="190" height="190" rx="34" fill="white" fill-opacity="0.1" stroke="white" stroke-opacity="0.12"/>
    <circle cx="95" cy="88" r="56" fill="url(#gold)" fill-opacity="0.22"/>
    <path d="M61 58H78C80.2091 58 82 59.7909 82 62V72C82 84.1503 91.8497 94 104 94C116.15 94 126 84.1503 126 72V62C126 59.7909 127.791 58 130 58H147C149.209 58 151 59.7909 151 62V76C151 101.405 131.405 122 106 122H102C76.5949 122 57 101.405 57 76V62C57 59.7909 58.7909 58 61 58Z" fill="url(#gold)"/>
    <path d="M82 70H65C53.9543 70 45 78.9543 45 90V98H58V90C58 86.6863 60.6863 84 64 84H82V70Z" fill="url(#gold)"/>
    <path d="M126 70H143C154.046 70 163 78.9543 163 90V98H150V90C150 86.6863 147.314 84 144 84H126V70Z" fill="url(#gold)"/>
    <rect x="92" y="120" width="24" height="20" rx="8" fill="url(#gold)"/>
    <rect x="74" y="138" width="60" height="14" rx="7" fill="url(#gold)"/>
    <rect x="62" y="154" width="84" height="12" rx="6" fill="url(#gold)" fill-opacity="0.84"/>
    <circle cx="44" cy="32" r="10" fill="#38BDF8" fill-opacity="0.85"/>
    <circle cx="155" cy="31" r="7" fill="#F8FAFC" fill-opacity="0.8"/>
    <circle cx="160" cy="151" r="8" fill="#F59E0B" fill-opacity="0.8"/>
  </g>

  <g font-family="Tajawal, Noto Sans Arabic, Arial, sans-serif" text-anchor="end" fill="white">
    <rect x="690" y="148" width="252" height="46" rx="23" fill="white" fill-opacity="0.12"/>
    <text x="922" y="178" font-size="28" font-weight="700">لعبة الأسئلة الجماعية</text>

    <text x="960" y="292" font-size="118" font-weight="900">الميدان</text>
    <text x="962" y="350" font-size="34" font-weight="500" fill="#D6E4FF">تحدَّ أصدقاءك في جولات سريعة وأسئلة متنوعة</text>

    <g font-size="26" font-weight="700">
      <rect x="805" y="392" width="155" height="48" rx="24" fill="white" fill-opacity="0.12"/>
      <text x="930" y="423">حتى 4 لاعبين</text>

      <rect x="617" y="392" width="168" height="48" rx="24" fill="white" fill-opacity="0.12"/>
      <text x="760" y="423">تنافس مباشر</text>

      <rect x="407" y="392" width="190" height="48" rx="24" fill="white" fill-opacity="0.12"/>
      <text x="573" y="423">أسئلة متنوعة</text>
    </g>

    <text x="964" y="482" font-size="24" font-weight="500" fill="#BFDBFE">أنشئ غرفة وابدأ اللعب فورًا عبر الرابط</text>
  </g>

  <g opacity="0.75">
    <circle cx="998" cy="90" r="8" fill="#FDE68A"/>
    <circle cx="1030" cy="90" r="8" fill="#38BDF8"/>
    <circle cx="1062" cy="90" r="8" fill="#F8FAFC"/>
  </g>
</svg>
